<svg xmlns="http://www.w3.org/2000/svg" xmlns:xlink="http://www.w3.org/1999/xlink" width="375" viewBox="0 0 375 375" height="375" version="1.0"><defs><g id="b"><path d="M 16.25 -47.25 L 25.171875 -13.078125 L 34.0625 -47.25 L 46.53125 -47.25 L 46.53125 0 L 36.953125 0 L 36.953125 -12.78125 L 37.828125 -32.484375 L 28.390625 0 L 21.90625 0 L 12.453125 -32.484375 L 13.34375 -12.78125 L 13.34375 0 L 3.796875 0 L 3.796875 -47.25 Z M 16.25 -47.25"/></g><g id="c"><path d="M 18.046875 -26.015625 L 25.140625 -47.25 L 35.53125 -47.25 L 22.875 -17.125 L 22.875 0 L 13.203125 0 L 13.203125 -17.125 L 0.515625 -47.25 L 10.90625 -47.25 Z M 18.046875 -26.015625"/></g><g id="d"><path d="M 28.15625 -19.265625 L 13.328125 -19.265625 L 13.328125 0 L 3.796875 0 L 3.796875 -47.21875 L 29.9375 -47.21875 L 29.9375 -39.28125 L 13.328125 -39.28125 L 13.328125 -27.171875 L 28.15625 -27.171875 Z M 28.15625 -19.265625"/></g><g id="e"><path d="M 26.328125 -9.671875 L 13.328125 -9.671875 L 10.796875 0 L 0.71875 0 L 15.46875 -47.21875 L 24.1875 -47.21875 L 39.046875 0 L 28.859375 0 Z M 15.40625 -17.609375 L 24.234375 -17.609375 L 19.8125 -34.4375 Z M 15.40625 -17.609375"/></g><g id="f"><path d="M 36.8125 0 L 27.28125 0 L 13.328125 -30.96875 L 13.328125 0 L 3.796875 0 L 3.796875 -47.21875 L 13.328125 -47.21875 L 27.3125 -16.21875 L 27.3125 -47.21875 L 36.8125 -47.21875 Z M 36.8125 0"/></g><clipPath id="a"><path d="M 143.691406 138.800781 L 217.191406 138.800781 L 217.191406 212.300781 L 143.691406 212.300781 Z M 143.691406 138.800781"/></clipPath></defs><g clip-path="url(#a)"><path fill="#26F7B2" d="M 180.441406 138.800781 C 160.175781 138.800781 143.691406 155.289062 143.691406 175.550781 C 143.691406 186.980469 148.847656 197.535156 157.820312 204.496094 C 162.984375 208.558594 169.132812 211.148438 175.554688 211.964844 C 177.144531 212.191406 178.792969 212.300781 180.441406 212.300781 C 182.089844 212.300781 183.738281 212.191406 185.289062 211.972656 C 191.75 211.148438 197.898438 208.5625 203.054688 204.507812 C 212.042969 197.535156 217.191406 186.976562 217.191406 175.550781 C 217.191406 155.289062 200.703125 138.800781 180.441406 138.800781 Z M 201.441406 198.957031 L 201.441406 195.398438 C 201.441406 190.253906 192.042969 186.050781 180.441406 186.050781 C 168.839844 186.050781 159.441406 190.253906 159.441406 195.398438 L 159.441406 198.957031 C 152.769531 193.019531 148.941406 184.625 148.941406 175.550781 C 148.941406 158.179688 163.070312 144.050781 180.441406 144.050781 C 197.816406 144.050781 211.941406 158.179688 211.941406 175.550781 C 211.941406 184.617188 208.121094 193.003906 201.441406 198.957031 Z M 201.441406 198.957031"/></g><path fill="#26F7B2" d="M 193.566406 167.675781 C 193.566406 168.539062 193.484375 169.390625 193.316406 170.238281 C 193.148438 171.082031 192.898438 171.902344 192.566406 172.699219 C 192.238281 173.496094 191.835938 174.253906 191.355469 174.96875 C 190.875 175.6875 190.332031 176.347656 189.722656 176.957031 C 189.113281 177.566406 188.449219 178.113281 187.734375 178.589844 C 187.019531 179.070312 186.261719 179.472656 185.464844 179.804688 C 184.667969 180.132812 183.847656 180.382812 183.003906 180.550781 C 182.15625 180.71875 181.304688 180.800781 180.441406 180.800781 C 179.582031 180.800781 178.726562 180.71875 177.882812 180.550781 C 177.035156 180.382812 176.214844 180.132812 175.417969 179.804688 C 174.625 179.472656 173.867188 179.070312 173.152344 178.589844 C 172.433594 178.113281 171.769531 177.566406 171.160156 176.957031 C 170.550781 176.347656 170.007812 175.6875 169.53125 174.96875 C 169.050781 174.253906 168.644531 173.496094 168.316406 172.699219 C 167.988281 171.902344 167.738281 171.082031 167.570312 170.238281 C 167.402344 169.390625 167.316406 168.539062 167.316406 167.675781 C 167.316406 166.816406 167.402344 165.960938 167.570312 165.117188 C 167.738281 164.269531 167.988281 163.449219 168.316406 162.65625 C 168.644531 161.859375 169.050781 161.101562 169.53125 160.386719 C 170.007812 159.667969 170.550781 159.003906 171.160156 158.394531 C 171.769531 157.785156 172.433594 157.242188 173.152344 156.765625 C 173.867188 156.285156 174.625 155.882812 175.417969 155.550781 C 176.214844 155.222656 177.035156 154.972656 177.882812 154.804688 C 178.726562 154.636719 179.582031 154.550781 180.441406 154.550781 C 181.304688 154.550781 182.15625 154.636719 183.003906 154.804688 C 183.847656 154.972656 184.667969 155.222656 185.464844 155.550781 C 186.261719 155.882812 187.019531 156.285156 187.734375 156.765625 C 188.449219 157.242188 189.113281 157.785156 189.722656 158.394531 C 190.332031 159.003906 190.875 159.667969 191.355469 160.386719 C 191.835938 161.101562 192.238281 161.859375 192.566406 162.65625 C 192.898438 163.449219 193.148438 164.269531 193.316406 165.117188 C 193.484375 165.960938 193.566406 166.816406 193.566406 167.675781 Z M 193.566406 167.675781"/><g fill-opacity=".4"><use x="48.241" y="204.137" xmlns:xlink="http://www.w3.org/1999/xlink" xlink:href="#b" xlink:type="simple" xlink:actuate="onLoad" xlink:show="embed"/></g><g fill-opacity=".4"><use x="98.619" y="204.137" xmlns:xlink="http://www.w3.org/1999/xlink" xlink:href="#c" xlink:type="simple" xlink:actuate="onLoad" xlink:show="embed"/></g><g fill="#FFF"><use x="45.305" y="201.201" xmlns:xlink="http://www.w3.org/1999/xlink" xlink:href="#b" xlink:type="simple" xlink:actuate="onLoad" xlink:show="embed"/></g><g fill="#FFF"><use x="95.682" y="201.201" xmlns:xlink="http://www.w3.org/1999/xlink" xlink:href="#c" xlink:type="simple" xlink:actuate="onLoad" xlink:show="embed"/></g><g fill-opacity=".4"><use x="228.51" y="200.857" xmlns:xlink="http://www.w3.org/1999/xlink" xlink:href="#d" xlink:type="simple" xlink:actuate="onLoad" xlink:show="embed"/><use x="260.099" y="200.857" xmlns:xlink="http://www.w3.org/1999/xlink" xlink:href="#e" xlink:type="simple" xlink:actuate="onLoad" xlink:show="embed"/><use x="299.763" y="200.857" xmlns:xlink="http://www.w3.org/1999/xlink" xlink:href="#f" xlink:type="simple" xlink:actuate="onLoad" xlink:show="embed"/></g><g fill="#FFF"><use x="225.574" y="197.922" xmlns:xlink="http://www.w3.org/1999/xlink" xlink:href="#d" xlink:type="simple" xlink:actuate="onLoad" xlink:show="embed"/><use x="257.163" y="197.922" xmlns:xlink="http://www.w3.org/1999/xlink" xlink:href="#e" xlink:type="simple" xlink:actuate="onLoad" xlink:show="embed"/><use x="296.828" y="197.922" xmlns:xlink="http://www.w3.org/1999/xlink" xlink:href="#f" xlink:type="simple" xlink:actuate="onLoad" xlink:show="embed"/></g></svg>