<svg xmlns="http://www.w3.org/2000/svg" width="375" viewBox="0 0 375 375" height="375" version="1.0"><defs><clipPath id="a"><path d="M 144 118.167969 L 287.433594 118.167969 L 287.433594 256.832031 L 144 256.832031 Z M 144 118.167969"/></clipPath><clipPath id="b"><path d="M 87.933594 118.167969 L 231 118.167969 L 231 256.832031 L 87.933594 256.832031 Z M 87.933594 118.167969"/></clipPath></defs><g clip-path="url(#a)"><path fill="#244A56" d="M 258.945312 256.734375 C 274.6875 256.734375 287.453125 244.003906 287.453125 228.296875 L 287.453125 189.222656 C 287.453125 150.023438 255.554688 118.1875 216.214844 118.1875 C 176.839844 118.1875 144.984375 150.023438 144.984375 189.222656 C 144.984375 218.382812 162.550781 243.410156 187.6875 254.367188 L 187.6875 220.945312 C 178.953125 213.128906 173.449219 201.851562 173.449219 189.21875 C 173.453125 165.71875 192.605469 146.597656 216.214844 146.597656 C 239.820312 146.597656 258.945312 165.71875 258.945312 189.222656 Z M 258.945312 256.734375"/></g><g clip-path="url(#b)"><path fill="#26F7B2" d="M 116.425781 256.734375 C 100.6875 256.734375 87.933594 244.007812 87.933594 228.3125 L 87.933594 189.222656 C 87.933594 150.023438 119.820312 118.1875 159.164062 118.1875 C 198.496094 118.1875 230.386719 150.023438 230.414062 189.222656 C 230.386719 218.382812 212.8125 243.410156 187.6875 254.367188 L 187.6875 220.933594 C 196.421875 213.128906 201.914062 201.851562 201.914062 189.21875 C 201.914062 165.71875 182.769531 146.597656 159.164062 146.597656 C 135.589844 146.597656 116.421875 165.71875 116.421875 189.222656 L 116.421875 256.734375 Z M 116.425781 256.734375"/></g></svg>