<?xml version="1.0" encoding="UTF-8"?><svg xmlns="http://www.w3.org/2000/svg" xmlns:xlink="http://www.w3.org/1999/xlink" width="375pt" zoomAndPan="magnify" viewBox="0 0 375 374.999991" height="374.999991pt" preserveAspectRatio="xMidYMid meet" version="1.2"><defs><g/><clipPath xml:id="clip1" id="clip1"><path d="M 156.117188 156.117188 L 219.117188 156.117188 L 219.117188 219.117188 L 156.117188 219.117188 Z M 156.117188 156.117188 "/></clipPath></defs><g xml:id="surface1" id="surface1"><g clip-rule="nonzero" clip-path="url(#clip1)"><path style=" stroke:none;fill-rule:nonzero;fill:rgb(14.898682%,96.859741%,69.799805%);fill-opacity:1;" d="M 187.617188 156.117188 C 170.246094 156.117188 156.117188 170.246094 156.117188 187.617188 C 156.117188 197.414062 160.535156 206.457031 168.226562 212.425781 C 172.652344 215.90625 177.921875 218.125 183.425781 218.828125 C 184.789062 219.023438 186.203125 219.117188 187.617188 219.117188 C 189.03125 219.117188 190.441406 219.023438 191.769531 218.832031 C 197.308594 218.125 202.578125 215.914062 206.996094 212.433594 C 214.703125 206.457031 219.117188 197.410156 219.117188 187.617188 C 219.117188 170.246094 204.980469 156.117188 187.617188 156.117188 Z M 205.617188 207.675781 L 205.617188 204.625 C 205.617188 200.214844 197.5625 196.617188 187.617188 196.617188 C 177.671875 196.617188 169.617188 200.214844 169.617188 204.625 L 169.617188 207.675781 C 163.898438 202.585938 160.617188 195.390625 160.617188 187.617188 C 160.617188 172.726562 172.726562 160.617188 187.617188 160.617188 C 202.507812 160.617188 214.617188 172.726562 214.617188 187.617188 C 214.617188 195.386719 211.339844 202.574219 205.617188 207.675781 Z M 205.617188 207.675781 "/></g><path style=" stroke:none;fill-rule:nonzero;fill:rgb(14.898682%,96.859741%,69.799805%);fill-opacity:1;" d="M 198.867188 180.867188 C 198.867188 181.605469 198.792969 182.335938 198.648438 183.0625 C 198.507812 183.785156 198.292969 184.488281 198.011719 185.171875 C 197.726562 185.855469 197.378906 186.503906 196.96875 187.117188 C 196.558594 187.730469 196.09375 188.300781 195.570312 188.820312 C 195.050781 189.34375 194.480469 189.808594 193.867188 190.21875 C 193.253906 190.628906 192.605469 190.976562 191.921875 191.261719 C 191.238281 191.542969 190.535156 191.757812 189.8125 191.898438 C 189.085938 192.042969 188.355469 192.117188 187.617188 192.117188 C 186.878906 192.117188 186.144531 192.042969 185.421875 191.898438 C 184.695312 191.757812 183.992188 191.542969 183.3125 191.261719 C 182.628906 190.976562 181.980469 190.628906 181.367188 190.21875 C 180.75 189.808594 180.183594 189.34375 179.660156 188.820312 C 179.140625 188.300781 178.671875 187.730469 178.261719 187.117188 C 177.851562 186.503906 177.503906 185.855469 177.222656 185.171875 C 176.941406 184.488281 176.726562 183.785156 176.582031 183.0625 C 176.4375 182.335938 176.367188 181.605469 176.367188 180.867188 C 176.367188 180.128906 176.4375 179.394531 176.582031 178.671875 C 176.726562 177.945312 176.941406 177.242188 177.222656 176.5625 C 177.503906 175.878906 177.851562 175.230469 178.261719 174.617188 C 178.671875 174 179.140625 173.433594 179.660156 172.910156 C 180.183594 172.390625 180.75 171.921875 181.367188 171.511719 C 181.980469 171.101562 182.628906 170.753906 183.3125 170.472656 C 183.992188 170.191406 184.695312 169.976562 185.421875 169.832031 C 186.144531 169.6875 186.878906 169.617188 187.617188 169.617188 C 188.355469 169.617188 189.085938 169.6875 189.8125 169.832031 C 190.535156 169.976562 191.238281 170.191406 191.921875 170.472656 C 192.605469 170.753906 193.253906 171.101562 193.867188 171.511719 C 194.480469 171.921875 195.050781 172.390625 195.570312 172.910156 C 196.09375 173.433594 196.558594 174 196.96875 174.617188 C 197.378906 175.230469 197.726562 175.878906 198.011719 176.5625 C 198.292969 177.242188 198.507812 177.945312 198.648438 178.671875 C 198.792969 179.394531 198.867188 180.128906 198.867188 180.867188 Z M 198.867188 180.867188 "/><g style="fill:rgb(82.749939%,92.939758%,91.758728%);fill-opacity:1;"><g transform="translate(57.142435, 213.581237)"><path style="stroke:none;" d="M 53.941406 -16.878906 C 51.492188 -10.207031 48.410156 -7.242188 45.730469 -7.242188 C 44.589844 -7.242188 43.851562 -7.984375 43.851562 -9.125 C 43.851562 -9.636719 44.019531 -10.265625 44.25 -10.949219 L 53.429688 -36.039062 C 53.886719 -37.234375 54.171875 -38.546875 54.171875 -40.144531 C 54.171875 -45.503906 50.238281 -49.496094 44.421875 -49.496094 C 41 -49.496094 36.894531 -48.128906 34.214844 -45.332031 C 32.445312 -48.011719 30.734375 -49.496094 26.859375 -49.496094 C 23.207031 -49.496094 20.8125 -47.214844 20.585938 -46.929688 C 20.128906 -48.355469 18.53125 -49.496094 16.367188 -49.496094 C 14.710938 -49.496094 12.429688 -48.8125 11.632812 -46.585938 L -3.023438 -5.53125 C -3.25 -4.960938 -3.25 -4.449219 -3.25 -3.933594 C -3.25 -1.425781 -1.253906 0 0.96875 0 C 2.90625 0 5.019531 -1.140625 5.929688 -3.648438 L 16.9375 -34.328125 C 18.304688 -38.148438 20.414062 -40.144531 22.980469 -40.144531 C 25.945312 -40.144531 26.742188 -37.863281 25.148438 -33.414062 L 15.167969 -5.988281 C 14.882812 -5.1875 14.710938 -4.449219 14.710938 -3.820312 C 14.710938 -1.367188 16.707031 0 18.875 0 C 20.871094 0 22.980469 -1.140625 23.890625 -3.707031 L 34.554688 -33.585938 C 35.925781 -37.464844 38.203125 -40.085938 41 -40.085938 C 43.222656 -40.085938 44.707031 -38.148438 43.679688 -35.355469 L 35.695312 -13.285156 C 35.183594 -11.804688 34.898438 -10.207031 34.898438 -8.894531 C 34.898438 -3.25 39.402344 0 44.933594 0 C 51.207031 0 57.195312 -4.105469 60.730469 -15.226562 C 60.84375 -15.679688 60.957031 -16.082031 60.957031 -16.480469 C 60.957031 -18.476562 59.246094 -19.617188 57.535156 -19.617188 C 56.054688 -19.617188 54.628906 -18.761719 53.941406 -16.878906 Z M 53.941406 -16.878906 "/></g></g><g style="fill:rgb(82.749939%,92.939758%,91.758728%);fill-opacity:1;"><g transform="translate(109.080161, 213.581237)"><path style="stroke:none;" d="M 7.867188 -9.808594 L 14.199219 -27.769531 C 14.425781 -28.398438 14.539062 -28.96875 14.539062 -29.539062 C 14.539062 -31.875 12.488281 -33.472656 10.378906 -33.472656 C 8.78125 -33.472656 7.070312 -32.503906 6.273438 -30.222656 L -0.628906 -10.605469 C -1.027344 -9.523438 -1.199219 -8.4375 -1.199219 -7.414062 C -1.199219 -3.535156 1.539062 -0.742188 5.246094 0 C -1.710938 1.539062 -8.609375 4.390625 -8.609375 11.40625 C -8.609375 16.9375 -3.476562 20.585938 2.109375 20.585938 C 7.753906 20.585938 13.058594 17.5625 15.453125 10.949219 C 16.25 8.554688 17.164062 6.042969 18.019531 3.707031 C 26.171875 1.140625 34.554688 -3.308594 38.488281 -15.28125 C 38.660156 -15.738281 38.71875 -16.195312 38.71875 -16.59375 C 38.71875 -18.53125 37.234375 -19.671875 35.523438 -19.671875 C 33.984375 -19.671875 32.332031 -18.703125 31.535156 -16.480469 C 29.421875 -10.664062 25.601562 -7.242188 21.15625 -4.960938 L 29.195312 -28.167969 C 29.367188 -28.683594 29.421875 -29.136719 29.421875 -29.539062 C 29.421875 -31.875 27.371094 -33.472656 25.261719 -33.472656 C 23.664062 -33.472656 21.953125 -32.503906 21.15625 -30.222656 L 14.597656 -10.949219 C 12.773438 -7.867188 10.777344 -6.730469 9.238281 -6.730469 C 8.210938 -6.730469 7.585938 -7.355469 7.585938 -8.382812 C 7.585938 -8.78125 7.699219 -9.292969 7.867188 -9.808594 Z M 7.585938 6.328125 L 6.214844 10.207031 C 5.417969 12.316406 3.648438 13.398438 1.9375 13.398438 C 0.628906 13.398438 0.0585938 12.601562 0.0585938 11.574219 C 0.0585938 11.234375 0.113281 10.777344 0.285156 10.378906 C 1.082031 8.382812 3.878906 7.300781 7.585938 6.328125 Z M 7.585938 6.328125 "/></g></g><g style="fill:rgb(82.749939%,92.939758%,91.758728%);fill-opacity:1;"><g transform="translate(223.997335, 216.416295)"><path style="stroke:none;" d="M 52.496094 -48.335938 L 27.359375 -48.335938 C 24.109375 -48.335938 22.742188 -46.398438 22.742188 -44.574219 C 22.742188 -42.863281 23.996094 -41.210938 26.050781 -41.210938 L 29.46875 -41.210938 L 25.992188 -32.035156 L 23.371094 -32.035156 C 20.292969 -32.035156 18.808594 -30.152344 18.808594 -28.328125 C 18.808594 -26.5625 20.179688 -24.851562 22.914062 -24.851562 L 23.484375 -24.851562 L 19.664062 -14.25 C 17.726562 -8.890625 15.445312 -7.867188 12.484375 -7.867188 C 10.429688 -7.867188 9.007812 -9.234375 8.492188 -10.601562 C 8.605469 -11 8.664062 -11.398438 8.664062 -11.800781 C 8.664062 -14.421875 6.328125 -16.015625 4.105469 -16.015625 C 1.824219 -16.015625 -0.457031 -14.421875 -0.457031 -10.773438 C -0.457031 -5.359375 4.960938 0 12.425781 0 C 18.296875 0 24.054688 -2.679688 27.304688 -11.800781 C 28.671875 -15.789062 30.550781 -20.917969 31.976562 -24.910156 L 35.398438 -24.910156 C 38.875 -24.910156 40.242188 -26.902344 40.242188 -28.785156 C 40.242188 -30.4375 39.160156 -32.035156 37.449219 -32.035156 L 34.484375 -32.035156 L 37.675781 -41.210938 L 51.070312 -41.210938 C 54.265625 -41.324219 55.632812 -43.148438 55.632812 -44.972656 C 55.632812 -46.683594 54.433594 -48.335938 52.496094 -48.335938 Z M 52.496094 -48.335938 "/></g></g><g style="fill:rgb(82.749939%,92.939758%,91.758728%);fill-opacity:1;"><g transform="translate(261.959319, 216.416295)"><path style="stroke:none;" d="M 35.738281 -19.265625 C 34.144531 -19.265625 32.375 -18.296875 31.691406 -16.132812 C 29.46875 -9.121094 25.878906 -6.78125 23.3125 -6.78125 C 22.34375 -6.78125 21.773438 -7.296875 21.773438 -8.207031 C 21.773438 -8.664062 21.886719 -9.234375 22.058594 -9.859375 L 28.441406 -28.328125 C 28.671875 -29.011719 28.785156 -29.640625 28.785156 -30.210938 C 28.785156 -32.71875 26.734375 -34.027344 24.625 -34.027344 C 23.027344 -34.027344 21.375 -33.289062 20.464844 -31.863281 C 19.265625 -32.605469 17.042969 -33.460938 14.136719 -33.460938 C 10.375 -33.460938 6.269531 -31.40625 4.730469 -27.019531 L -0.628906 -11.683594 C -0.96875 -10.660156 -1.195312 -9.632812 -1.195312 -8.605469 C -1.195312 -3.875 2.621094 0 7.636719 0 C 10.316406 0 13.054688 -1.195312 15.160156 -3.078125 C 16.984375 -0.457031 21.03125 0 22.742188 0 C 27.472656 0 33.800781 -2.394531 37.449219 -11.628906 C 38.246094 -13.851562 38.875 -15.277344 38.875 -16.300781 C 38.875 -18.238281 37.390625 -19.265625 35.738281 -19.265625 Z M 16.929688 -19.835938 L 14.191406 -11.34375 C 12.996094 -7.636719 10.828125 -6.78125 9.632812 -6.78125 C 8.378906 -6.78125 7.753906 -7.582031 7.753906 -8.890625 C 7.753906 -9.632812 7.921875 -10.316406 8.09375 -10.828125 L 11.742188 -22.285156 C 12.824219 -25.765625 14.421875 -26.21875 15.332031 -26.21875 C 16.414062 -26.21875 17.613281 -25.136719 17.613281 -23.199219 C 17.613281 -22.34375 17.386719 -21.261719 16.929688 -19.835938 Z M 16.929688 -19.835938 "/></g></g><g style="fill:rgb(82.749939%,92.939758%,91.758728%);fill-opacity:1;"><g transform="translate(291.884312, 216.416295)"><path style="stroke:none;" d="M 31.804688 -16.414062 C 29.296875 -9.574219 26.164062 -6.78125 23.484375 -6.78125 C 22.457031 -6.78125 21.886719 -7.296875 21.886719 -8.265625 C 21.886719 -8.664062 22.003906 -9.121094 22.171875 -9.691406 L 26.617188 -22.34375 C 27.019531 -23.484375 27.246094 -24.511719 27.246094 -25.480469 C 27.246094 -30.039062 23.371094 -33.460938 18.808594 -33.460938 C 16.585938 -33.460938 14.820312 -32.945312 13.339844 -31.863281 C 12.996094 -32.890625 11.570312 -33.460938 10.03125 -33.460938 C 8.4375 -33.460938 6.898438 -32.71875 6.328125 -31.121094 L -3.191406 -4.503906 C -3.363281 -3.988281 -3.421875 -3.535156 -3.421875 -3.078125 C -3.421875 -0.96875 -1.765625 0.113281 0.0585938 0.113281 C 2.050781 0.113281 4.332031 -1.140625 5.1875 -3.703125 C 7.183594 -9.234375 9.917969 -17.042969 11.855469 -22.515625 C 13.394531 -25.363281 15.390625 -26.734375 16.984375 -26.734375 C 18.011719 -26.734375 18.753906 -26.050781 18.753906 -24.964844 C 18.753906 -24.566406 18.640625 -24.054688 18.46875 -23.539062 L 14.308594 -11.800781 C 13.851562 -10.488281 13.566406 -9.234375 13.566406 -8.035156 C 13.566406 -2.792969 17.898438 0 22.742188 0 C 28.558594 0 34.769531 -3.933594 38.703125 -15.046875 C 38.875 -15.503906 38.988281 -15.960938 38.988281 -16.359375 C 38.988281 -18.183594 37.335938 -19.152344 35.625 -19.152344 C 34.085938 -19.152344 32.375 -18.296875 31.804688 -16.414062 Z M 31.804688 -16.414062 "/></g></g></g></svg>